Coordinates
version=1
nRows=17
nColumns=40
inDegrees=yes

Units are S.I. units (second, meters, Newtons, ...)
Angles are in degrees.

endheader
time	pelvis_tilt	pelvis_list	pelvis_rotation	pelvis_tx	pelvis_ty	pelvis_tz	hip_flexion_r	hip_adduction_r	hip_rotation_r	knee_angle_r	knee_angle_r_beta	ankle_angle_r	subtalar_angle_r	mtp_angle_r	hip_flexion_l	hip_adduction_l	hip_rotation_l	knee_angle_l	knee_angle_l_beta	ankle_angle_l	subtalar_angle_l	mtp_angle_l	lumbar_extension	lumbar_bending	lumbar_rotation	arm_flex_r	arm_add_r	arm_rot_r	elbow_flex_r	pro_sup_r	wrist_flex_r	wrist_dev_r	arm_flex_l	arm_add_l	arm_rot_l	elbow_flex_l	pro_sup_l	wrist_flex_l	wrist_dev_l
     46.99500000	     -5.87310084	     -5.39773493	    -11.82008367	      0.89275079	      0.92366331	      0.45987118	     29.41464075	      1.50244602	     -7.58405856	     18.68632564	     18.68632564	     -2.00577015	      4.04623740	      2.28123549	     10.83787171	     -5.08670064	     -9.68703670	     24.39049195	     24.39049195	     20.40851443	    -15.59631855	      4.98963605	    -10.87690607	      7.36277148	      0.17367375	    -13.73639292	    -11.80960139	    -21.42612648	     29.27521641	     47.32338503	      0.00000000	      0.00000000	     26.90865141	    -16.74075797	     -1.98030936	     63.83956758	     47.01388793	      0.00000000	      0.00000000
     47.01335714	     -5.96265142	     -5.17768948	    -11.85909080	      0.89359430	      0.92384107	      0.46189555	     29.10106320	      1.41773108	     -7.80542954	     17.26113357	     17.26113357	     -3.08807186	      5.36834913	      2.82550941	      9.93143587	     -4.88663555	    -10.09734422	     23.33996959	     23.33996959	     20.46067753	    -14.90855483	      4.64896221	    -10.71111299	      7.18177393	      0.15062448	    -13.70436151	    -11.53739467	    -21.34407267	     29.88032344	     47.27952529	      0.00000000	      0.00000000	     27.09691276	    -16.41445962	     -2.01958959	     64.77307099	     47.03706364	      0.00000000	      0.00000000
     47.03171429	     -5.95482940	     -5.00362204	    -11.76916246	      0.89475457	      0.92370276	      0.46394815	     28.72892014	      1.23983016	     -8.08634331	     16.42959580	     16.42959580	     -3.85291511	      6.56903933	      2.68255964	      8.97724238	     -4.75710785	    -10.57658121	     22.40987008	     22.40987008	     20.30357319	    -14.10760243	      3.41244273	    -10.66741540	      7.07051281	     -0.04941025	    -13.84286473	    -11.28363256	    -21.10415233	     31.57999228	     47.15722286	      0.00000000	      0.00000000	     26.92778835	    -16.19246738	     -2.31328264	     66.89852587	     47.10360813	      0.00000000	      0.00000000
     47.05007143	     -6.03428265	     -4.79687996	    -11.64179102	      0.89610947	      0.92312076	      0.46613079	     28.42717492	      1.09668621	     -7.84657497	     15.91075601	     15.91075601	     -4.48474330	      6.87448652	      1.81463913	      8.13979734	     -4.58953756	    -10.89557014	     21.51049709	     21.51049709	     20.07410389	    -13.48542740	      2.00346763	    -10.47989761	      6.96371520	     -0.30427643	    -13.87916262	    -11.20246872	    -20.37059417	     33.23930995	     46.99064215	      0.00000000	      0.00000000	     26.59858398	    -16.01238056	     -2.64744020	     68.83408240	     47.17813091	      0.00000000	      0.00000000
     47.06842857	     -6.05620474	     -4.56255382	    -11.44069979	      0.89773735	      0.92236894	      0.46837991	     28.07241516	      0.88734950	     -7.45395376	     15.75074028	     15.75074028	     -4.74364551	      6.92661355	      0.60183232	      7.28059615	     -4.37425397	    -11.11462130	     20.70507385	     20.70507385	     20.03587353	    -12.84301312	      0.99351518	    -10.30521144	      6.84299870	     -0.48196601	    -13.62156601	    -11.23782407	    -19.29060512	     34.10131545	     46.83224987	      0.00000000	      0.00000000	     26.49233604	    -15.74926878	     -2.84432242	     70.17158053	     47.24158856	      0.00000000	      0.00000000
     47.08678571	     -6.25829954	     -4.45695209	    -11.16920564	      0.89942463	      0.92113474	      0.47079842	     27.83181299	      0.81801494	     -7.10686110	     15.78597725	     15.78597725	     -4.23034575	      7.02377676	      0.40543186	      6.91018768	     -4.35295822	    -10.92912440	     20.52455320	     20.52455320	     20.39100208	    -12.70002398	      0.85379644	     -9.87120750	      6.94220843	     -0.49264677	    -13.23031122	    -11.22081811	    -19.25004486	     34.25318772	     46.82534170	      0.00000000	      0.00000000	     26.69873084	    -15.48862234	     -2.76416942	     70.34849039	     47.24068907	      0.00000000	      0.00000000
     47.10514286	     -6.06203686	     -4.12264359	    -10.93651664	      0.90168728	      0.92044853	      0.47340736	     27.35786790	      0.52041913	     -6.27700650	     16.30565466	     16.30565466	     -3.60205602	      6.46629907	     -0.96146162	      5.60546177	     -4.02464388	    -11.43297772	     19.38438970	     19.38438970	     20.47189430	    -11.38962535	     -0.00700486	     -9.95412133	      6.63027445	     -0.60544945	    -12.60981562	    -11.28770697	    -18.49089654	     34.90068745	     46.71485404	      0.00000000	      0.00000000	     26.27390756	    -15.12674894	     -3.08976892	     72.50435364	     47.31882922	      0.00000000	      0.00000000
     47.12350000	     -6.04288121	     -3.92802334	    -10.64358897	      0.90389677	      0.91946824	      0.47616935	     27.03653608	      0.37023656	     -5.71489043	     16.93344517	     16.93344517	     -2.49009604	      6.13442572	     -1.50729337	      4.75485690	     -3.86586917	    -11.39831982	     18.76331259	     18.76331259	     20.71351766	    -10.88779879	     -0.11211192	     -9.82638642	      6.56935840	     -0.47166928	    -12.04125874	    -11.37887439	    -18.36160178	     35.07142347	     46.69868246	      0.00000000	      0.00000000	     26.35681892	    -14.65460824	     -3.04524172	     72.93450992	     47.32667015	      0.00000000	      0.00000000
     47.14185714	     -6.28774501	     -3.86226466	    -10.31742788	      0.90604176	      0.91827242	      0.47923400	     26.69814380	      0.42550085	     -5.38150951	     17.08229198	     17.08229198	     -1.36599742	      6.06253274	     -1.91702624	      4.39433921	     -3.95370568	    -11.16875000	     18.57727991	     18.57727991	     20.97528742	    -10.70492452	     -0.21339030	     -9.41578607	      6.67664709	     -0.32307488	    -11.54541791	    -11.48738912	    -18.33683117	     35.24423677	     46.69315528	      0.00000000	      0.00000000	     26.36420834	    -14.38439015	     -2.97560716	     73.08153758	     47.32484512	      0.00000000	      0.00000000
     47.16021429	     -6.05160905	     -3.56834795	    -10.09708377	      0.90861828	      0.91773774	      0.48253256	     26.53060209	      0.26504855	     -4.41462095	     18.47216165	     18.47216165	      0.06111254	      4.80408106	     -2.55685343	      3.02879932	     -3.67237606	    -11.45766765	     17.45746448	     17.45746448	     21.09119106	     -9.67286764	     -0.32995811	     -9.54855409	      6.42816370	     -0.13458993	    -10.76272717	    -11.69986609	    -18.18911823	     35.45512636	     46.67353603	      0.00000000	      0.00000000	     26.05418330	    -13.86007609	     -3.15651681	     74.06838643	     47.35641336	      0.00000000	      0.00000000
     47.17857143	     -6.14464609	     -3.65696459	     -9.74510965	      0.91091589	      0.91708574	      0.48606039	     26.27181663	      0.48144411	     -4.22826724	     19.11640643	     19.11640643	      1.20446415	      4.25930939	     -2.99569258	      2.37890254	     -3.94301404	    -11.29301666	     17.08864029	     17.08864029	     21.25448694	     -9.32142549	     -0.37984006	     -9.37998004	      6.64384131	     -0.03572721	     -9.97062737	    -12.01482767	    -18.16347134	     35.71454214	     46.66535281	      0.00000000	      0.00000000	     25.71956974	    -13.39559904	     -3.10279756	     74.32281076	     47.35632405	      0.00000000	      0.00000000
     47.19692857	     -6.11078543	     -3.51617587	     -9.48433493	      0.91329515	      0.91672896	      0.48994671	     26.14955761	      0.56786832	     -3.54081319	     20.14920080	     20.14920080	      2.43098700	      3.05222831	     -3.27619121	      1.44285353	     -3.96364387	    -11.47360268	     16.38059221	     16.38059221	     21.28685545	     -8.52498298	     -0.40190092	     -9.38181537	      6.52384268	     -0.02866986	     -9.14886625	    -12.25548941	    -18.06687447	     35.95634103	     46.64865155	      0.00000000	      0.00000000	     25.17596246	    -13.31165094	     -3.51102428	     74.99708795	     47.39635774	      0.00000000	      0.00000000
     47.21528571	     -6.16951653	     -3.58866300	     -9.16670494	      0.91555038	      0.91657934	      0.49403091	     25.97334702	      0.88182525	     -3.11762249	     20.92195523	     20.92195523	      3.49433432	      1.92025686	     -3.19295238	      0.74208699	     -4.30111960	    -11.58924902	     15.97653598	     15.97653598	     21.37346523	     -7.75501572	     -0.40959107	     -9.29264937	      6.61036322	     -0.31853762	     -8.04435694	    -12.58307509	    -17.87997711	     36.25846966	     46.62117598	      0.00000000	      0.00000000	     24.28512117	    -13.19197305	     -4.13851050	     75.74057757	     47.45275879	      0.00000000	      0.00000000
     47.23364286	     -6.22457632	     -3.71514099	     -8.78993292	      0.91771627	      0.91659692	      0.49820998	     25.76521911	      1.16381824	     -3.19312525	     21.60810294	     21.60810294	      4.37239109	      1.32022985	     -3.34169515	      0.19120686	     -4.72354429	    -11.51483083	     15.82925008	     15.82925008	     21.38775776	     -7.34396492	     -0.32428599	     -9.22448897	      6.73837331	     -0.33721658	     -7.15758820	    -12.96109904	    -17.81331366	     36.57225138	     46.60632176	      0.00000000	      0.00000000	     23.69059514	    -13.02131165	     -4.28800821	     75.75825075	     47.46221473	      0.00000000	      0.00000000
     47.25200000	     -6.30349781	     -3.86650981	     -8.40364787	      0.91976915	      0.91682359	      0.50259121	     25.59760405	      1.51683857	     -3.17944686	     22.31061392	     22.31061392	      5.48351997	      0.56438065	     -2.20650575	     -0.17772575	     -5.31672916	    -11.86298969	     16.01319519	     16.01319519	     21.72669752	     -6.16453334	      0.22250018	     -9.13630363	      6.83497999	     -0.98993139	     -5.80255027	    -13.45387134	    -16.79723885	     36.91529182	     46.49873625	      0.00000000	      0.00000000	     22.41284112	    -12.96155340	     -5.48934398	     76.40303620	     47.56738686	      0.00000000	      0.00000000
     47.27035714	     -6.34014836	     -3.97338398	     -7.97131680	      0.92178175	      0.91724763	      0.50693489	     25.29528096	      1.77206605	     -3.37276763	     22.77420153	     22.77420153	      6.08371982	     -0.01711530	     -2.28214523	     -0.48963447	     -5.80422526	    -11.76132086	     16.26783032	     16.26783032	     21.60284493	     -5.86000435	      0.28898796	     -9.03059121	      6.88553006	     -1.16603669	     -4.80377599	    -13.80114314	    -16.69970258	     37.48570612	     46.47032563	      0.00000000	      0.00000000	     21.76713727	    -12.93002239	     -5.31109870	     75.71314683	     47.54273161	      0.00000000	      0.00000000
     47.28871429	     -6.38575242	     -4.15615085	     -7.52435590	      0.92367913	      0.91775089	      0.51144054	     24.94665508	      2.12439203	     -3.60331499	     23.13648135	     23.13648135	      6.65178796	     -0.56980071	     -2.13529681	     -0.57270654	     -6.49485388	    -11.80404661	     16.95582561	     16.95582561	     21.57527648	     -5.27890318	      0.21288972	     -8.93470289	      6.95161100	     -1.25721213	     -3.95457847	    -14.24007656	    -16.40376633	     38.30395668	     46.41341611	      0.00000000	      0.00000000	     21.10339519	    -12.88031894	     -5.11631945	     74.76275523	     47.51526902	      0.00000000	      0.00000000
